<svg width="83" height="83" viewBox="0 0 83 83" fill="none" xmlns="http://www.w3.org/2000/svg">
<g filter="url(#filter0_d_1_367)">
<path fill-rule="evenodd" clip-rule="evenodd" d="M33.1435 0V12.2558V0Z" fill="white"/>
<path d="M33.1435 0V12.2558" stroke="white" stroke-width="3.06395"/>
<path fill-rule="evenodd" clip-rule="evenodd" d="M16.271 29.1075H4H16.271Z" fill="white"/>
<path d="M16.271 29.1075H4" stroke="white" stroke-width="3.06395"/>
<path fill-rule="evenodd" clip-rule="evenodd" d="M55.0779 7.2002L46.4882 15.7792L55.0779 7.2002Z" fill="white"/>
<path d="M55.0779 7.2002L46.4882 15.7792" stroke="white" stroke-width="3.06395"/>
<path fill-rule="evenodd" clip-rule="evenodd" d="M19.7989 42.4355L11.2092 51.0146L19.7989 42.4355Z" fill="white"/>
<path d="M19.7989 42.4355L11.2092 51.0146" stroke="white" stroke-width="3.06395"/>
<path fill-rule="evenodd" clip-rule="evenodd" d="M19.7989 15.7792L11.2092 7.2002L19.7989 15.7792Z" fill="white"/>
<path d="M19.7989 15.7792L11.2092 7.2002" stroke="white" stroke-width="3.06395"/>
<path fill-rule="evenodd" clip-rule="evenodd" d="M28.2776 30.8362L34.7852 24.3366L76 65.5005L69.4924 72L28.2776 30.8362Z" stroke="white" stroke-width="3.06392"/>
<path fill-rule="evenodd" clip-rule="evenodd" d="M38.3582 40.9167L44.8649 34.4162L76 65.5004L69.4934 72.0009L38.3582 40.9167Z" fill="white" stroke="white" stroke-width="3.06392"/>
</g>
<defs>
<filter id="filter0_d_1_367" x="0" y="0" width="82.1679" height="82.166" filterUnits="userSpaceOnUse" color-interpolation-filters="sRGB">
<feFlood flood-opacity="0" result="BackgroundImageFix"/>
<feColorMatrix in="SourceAlpha" type="matrix" values="0 0 0 0 0 0 0 0 0 0 0 0 0 0 0 0 0 0 127 0" result="hardAlpha"/>
<feOffset dy="4"/>
<feGaussianBlur stdDeviation="2"/>
<feComposite in2="hardAlpha" operator="out"/>
<feColorMatrix type="matrix" values="0 0 0 0 0 0 0 0 0 0 0 0 0 0 0 0 0 0 0.25 0"/>
<feBlend mode="normal" in2="BackgroundImageFix" result="effect1_dropShadow_1_367"/>
<feBlend mode="normal" in="SourceGraphic" in2="effect1_dropShadow_1_367" result="shape"/>
</filter>
</defs>
</svg>
